<?xml version="1.0" standalone="no"?>
<!DOCTYPE svg PUBLIC "-//W3C//DTD SVG 20010904//EN"
 "http://www.w3.org/TR/2001/REC-SVG-20010904/DTD/svg10.dtd">
<svg version="1.0" xmlns="http://www.w3.org/2000/svg"
 width="998.000000pt" height="998.000000pt" viewBox="0 0 998.000000 998.000000"
 preserveAspectRatio="xMidYMid meet">
<metadata>
Created by potrace 1.14, written by Peter Selinger 2001-2017
</metadata>
<g transform="translate(0.000000,998.000000) scale(0.100000,-0.100000)"
fill="#000000" stroke="none">
<path d="M0 4990 l0 -3930 4990 0 4990 0 0 3930 0 3930 -4990 0 -4990 0 0
-3930z m6440 1845 l1475 -1475 -135 -135 -135 -135 135 -135 135 -135 -368
-368 c-202 -202 -367 -370 -367 -374 0 -4 10 -4 23 0 19 5 726 16 845 12 43
-1 51 7 30 28 -8 8 -1 11 32 9 53 -2 63 16 21 38 -17 8 -31 21 -31 28 0 6 -7
21 -15 31 -22 29 -67 23 -108 -15 -32 -29 -34 -34 -19 -48 14 -15 14 -16 -9
-19 -13 -2 -30 -9 -37 -14 -7 -6 -15 -8 -19 -4 -3 3 0 6 8 6 11 0 11 2 -1 10
-11 7 -7 10 20 11 l35 2 -35 7 c-19 4 -28 8 -20 9 13 1 13 2 0 11 -11 7 -7 10
20 11 l35 2 -35 7 c-19 4 -28 8 -20 9 13 1 13 2 0 11 -11 7 -7 10 20 11 l35 2
-35 7 c-19 4 -28 8 -20 9 13 1 13 2 0 11 -11 7 -7 10 20 11 l35 2 -35 7 c-19
4 -28 8 -20 9 13 1 13 2 0 11 -11 7 -7 10 20 11 l35 2 -35 7 c-19 4 -28 8 -20
9 13 1 13 2 0 11 -13 9 -13 10 0 10 13 0 13 1 0 10 -11 7 -7 10 20 11 l35 2
-35 7 c-19 4 -28 8 -20 9 13 1 13 2 0 11 -11 7 -7 10 20 11 l35 2 -35 7 c-19
4 -28 8 -20 9 13 1 13 2 0 11 -11 7 -7 10 20 11 l35 2 -35 7 c-19 4 -28 8 -20
9 13 1 13 2 0 11 -11 7 -7 10 20 11 l35 2 -35 7 c-19 4 -28 8 -20 9 13 1 13 2
0 11 -12 8 -8 10 15 11 17 1 57 3 90 6 33 2 402 6 820 8 l760 5 -232 -117
-233 -116 238 -119 237 -118 -661 5 -662 5 -142 -117 c-114 -93 -140 -119
-128 -127 53 -40 328 -269 328 -274 0 -3 -156 -2 -347 1 -192 4 -360 7 -375 7
-23 0 -28 4 -28 24 0 29 -19 37 -72 31 -40 -4 -48 5 -23 25 16 14 20 30 7 30
-22 0 -52 -39 -52 -69 0 -29 3 -31 34 -31 19 0 38 5 41 10 10 16 45 12 45 -5
0 -12 -16 -15 -81 -15 -51 0 -78 4 -74 10 3 6 -1 10 -9 10 -9 0 -16 -4 -16
-10 0 -6 -55 -10 -147 -9 -92 1 -135 4 -113 9 l35 7 -35 2 c-27 1 -31 4 -20
11 13 9 13 10 0 11 -8 1 1 5 20 9 l35 7 -35 2 c-27 1 -31 4 -20 11 13 9 13 10
0 11 -8 1 1 5 20 9 l35 7 -35 2 c-27 1 -31 4 -20 11 13 9 13 10 0 11 -8 1 1 5
20 9 l35 7 -35 2 c-27 1 -31 4 -20 11 13 9 13 10 0 11 -8 1 1 5 20 9 l35 7
-35 2 c-27 1 -31 4 -20 11 13 9 13 10 0 11 -8 1 1 5 20 9 l35 7 -35 2 c-27 1
-31 4 -20 11 13 9 13 10 0 11 -8 1 1 5 20 9 l35 7 -35 2 c-27 1 -31 4 -20 11
13 9 13 10 0 11 -8 1 1 5 20 9 l35 7 -35 2 c-27 1 -31 4 -20 11 13 9 13 10 0
11 -8 1 1 5 20 9 l35 7 -35 2 c-27 1 -31 4 -20 11 13 9 13 10 0 11 -8 1 1 5
20 9 l35 7 -35 2 c-27 1 -31 4 -20 11 13 9 13 10 0 11 -8 1 1 5 20 9 35 7 35
7 5 9 -27 1 -135 -104 -1097 -1066 l-1068 -1068 -1477 1477 -1478 1478 135
135 135 135 -135 135 -135 135 1475 1475 c811 811 1477 1475 1480 1475 3 0
669 -664 1480 -1475z m1610 -2654 c0 -6 -4 -13 -10 -16 -5 -3 -10 1 -10 9 0 9
5 16 10 16 6 0 10 -4 10 -9z"/>
<path d="M3525 6790 l-1430 -1430 113 -112 112 -113 1320 1320 1320 1320 1315
-1315 c723 -723 1319 -1316 1323 -1318 4 -1 57 47 117 108 l110 110 -1430
1430 c-787 787 -1432 1430 -1435 1430 -3 0 -649 -643 -1435 -1430z"/>
<path d="M3661 6386 l-1294 -1294 522 -529 c287 -290 871 -874 1297 -1297
l776 -769 849 849 849 849 -43 -3 c-30 -3 -47 1 -56 12 -19 22 -6 46 24 46 18
0 25 -5 25 -20 0 -24 8 -25 38 -4 36 25 28 44 -19 44 -57 0 -79 14 -79 51 0
38 39 76 87 85 39 7 70 -13 60 -40 -8 -21 -54 -21 -59 -1 -3 14 -6 14 -26 0
-31 -23 -19 -35 36 -35 54 0 68 -7 79 -38 8 -20 49 19 418 388 l410 410 -1295
1295 c-712 712 -1297 1295 -1300 1295 -3 0 -587 -582 -1299 -1294z m2829 -631
c68 -9 125 -17 127 -19 2 -2 -63 -6 -144 -9 -249 -10 -388 -39 -533 -112 -76
-38 -246 -150 -450 -295 -174 -124 -250 -163 -312 -158 -56 4 -62 28 -16 71
33 31 468 311 613 394 121 70 243 116 355 136 59 10 245 6 360 -8z m-2595 -50
c50 -14 137 -51 194 -81 145 -77 629 -386 670 -428 45 -46 37 -66 -26 -66 -69
0 -122 29 -338 182 -452 320 -543 359 -905 379 -96 5 -179 11 -185 13 -5 2 44
8 110 15 66 7 127 14 135 16 8 2 69 2 135 0 92 -3 141 -10 210 -30z m2586
-469 c-26 -28 -98 -61 -156 -72 -37 -7 -38 -8 -15 -15 14 -4 58 -7 97 -8 81
-1 158 22 202 61 21 19 21 17 -4 -11 -16 -18 -48 -42 -70 -53 l-40 -19 50 7
c71 9 51 -4 -31 -21 l-69 -14 65 4 65 4 -50 -14 -50 -15 50 5 c28 2 61 7 75
10 14 3 7 -2 -15 -10 -22 -9 -58 -20 -80 -25 l-40 -8 50 -2 c56 -2 52 -5 -20
-16 l-50 -8 60 -7 c55 -5 52 -6 -40 -8 -88 -3 -95 -4 -56 -12 61 -12 63 -19 5
-20 -47 -1 -48 -1 -19 -11 17 -6 32 -14 35 -18 3 -5 16 -10 30 -13 14 -2 -11
-5 -55 -7 -44 -1 -71 -4 -60 -7 11 -3 24 -9 29 -13 10 -10 -67 -2 -108 11 -46
15 -42 3 6 -15 24 -9 31 -14 16 -11 -14 3 -37 1 -50 -4 -23 -10 -23 -10 -1
-10 12 -1 24 -5 27 -10 6 -9 -64 2 -98 15 -14 5 -17 4 -12 -5 5 -8 -3 -7 -28
3 -48 20 -36 2 15 -24 21 -11 39 -23 39 -26 0 -10 -76 9 -110 28 l-35 20 25
-27 c14 -15 46 -41 73 -58 48 -31 61 -45 30 -32 -10 4 -29 8 -43 9 -14 1 -25
6 -25 13 0 6 -4 15 -9 20 -5 5 -6 3 -2 -4 10 -18 -5 -16 -33 4 -14 9 -21 12
-18 6 12 -18 -21 -23 -35 -5 -12 16 -11 16 7 2 19 -14 19 -14 6 3 -8 9 -16 15
-19 12 -3 -3 -14 3 -24 12 -18 16 -19 16 -9 -11 18 -46 12 -53 -13 -14 l-23
38 4 -58 3 -57 -17 50 -17 50 -6 -50 -6 -50 -7 50 c-12 73 -26 91 -28 35 0
-25 -5 -54 -10 -65 -6 -14 -7 -7 -4 25 l6 45 -20 -40 -19 -40 -1 35 -1 35 -16
-30 c-23 -44 -26 -44 -20 0 6 38 5 39 -4 8 -13 -42 -33 -55 -25 -16 l7 28 -21
-25 -21 -25 10 28 c14 40 13 41 -16 10 -16 -17 -24 -21 -20 -11 4 13 1 15 -12
11 -14 -5 -15 -4 -6 8 6 8 15 25 19 39 6 22 3 21 -35 -15 -39 -36 -41 -37 -24
-10 18 30 18 30 -1 14 -39 -32 -49 -32 -27 -2 26 37 29 52 5 31 -10 -8 -25
-19 -33 -23 -13 -8 -13 -7 0 10 15 17 14 18 -20 1 l-35 -17 24 21 c28 24 21
26 -20 4 -42 -21 -47 -11 -7 15 39 25 34 26 -18 6 l-39 -16 25 21 c22 19 22
20 3 11 -12 -6 -32 -11 -45 -10 -22 1 -22 1 4 13 33 14 78 55 78 71 0 8 48 14
158 18 313 13 444 61 512 190 l23 44 91 -4 c87 -5 94 -4 146 25 68 37 69 38
41 8z m-2941 -66 c41 -11 95 -9 152 5 19 5 27 -2 47 -40 50 -94 143 -152 283
-175 35 -5 136 -13 226 -17 149 -6 162 -8 162 -25 0 -11 18 -30 47 -48 37 -24
42 -30 24 -30 -14 0 -20 -4 -15 -11 8 -14 -30 -4 -66 18 -25 14 -25 14 -4 -4
12 -10 30 -24 40 -31 17 -11 17 -12 -6 -6 -14 3 -35 16 -48 27 -19 18 -22 19
-16 4 3 -10 15 -22 26 -28 11 -6 17 -13 15 -16 -3 -2 -16 1 -29 8 -22 12 -22
11 -8 -6 13 -17 13 -18 0 -10 -8 4 -25 17 -37 28 -29 26 -30 8 -2 -27 25 -32
14 -34 -20 -3 l-25 22 17 -27 c25 -40 5 -34 -34 10 -18 20 -30 30 -27 22 3 -8
9 -26 13 -40 7 -23 7 -24 -10 -10 -17 14 -18 14 -5 -10 l13 -25 -27 24 c-28
26 -33 22 -15 -12 l12 -22 -22 20 -22 19 7 -29 c9 -40 -4 -26 -22 22 l-15 38
6 -40 c6 -38 5 -39 -9 -20 -8 11 -16 26 -16 33 0 7 -4 11 -9 8 -4 -3 -7 -18
-5 -33 4 -24 1 -23 -16 12 l-21 40 7 -45 c3 -25 3 -42 -1 -38 -4 4 -11 33 -14
65 l-7 58 -15 -65 -14 -65 -5 50 -5 50 -17 -50 -17 -50 2 53 c1 37 -1 48 -8
38 -38 -54 -36 -53 -30 -21 l7 30 -24 -22 c-29 -27 -46 -30 -27 -5 11 14 10
13 -9 -2 -14 -12 -22 -15 -22 -7 0 8 -12 5 -36 -9 -19 -12 -38 -20 -41 -17 -3
4 -18 0 -34 -9 -45 -23 -34 -2 14 28 23 15 54 39 67 53 l24 26 -44 -20 c-25
-11 -56 -20 -70 -20 -23 0 -23 1 10 19 19 11 46 29 60 40 l25 21 -42 -20 c-47
-23 -57 -26 -48 -11 8 12 5 12 -31 1 -16 -5 -42 -12 -57 -16 -24 -5 -27 -4
-15 8 7 8 20 12 28 10 13 -4 13 -4 0 6 -8 6 -31 8 -50 6 -28 -4 -31 -3 -15 5
15 8 6 9 -35 4 -58 -6 -63 3 -8 16 25 6 12 9 -57 11 -49 1 -72 4 -51 6 27 3
35 7 26 13 -10 6 -2 11 26 17 l39 8 -55 5 -55 6 55 11 55 12 -60 -4 c-33 -2
-80 0 -105 4 -44 8 -44 9 25 11 l70 2 -60 9 c-77 11 -90 17 -40 19 l40 1 -53
15 c-30 8 -61 19 -70 25 -15 9 -14 10 3 4 10 -3 40 -8 65 -11 l45 -4 -40 14
-40 14 60 -4 60 -4 -69 15 c-82 17 -101 29 -31 21 l50 -7 -35 20 c-19 10 -46
32 -60 47 -16 18 -18 23 -5 12 49 -41 118 -62 195 -61 41 1 89 6 105 12 l30 9
-30 1 c-44 2 -127 33 -163 61 -43 35 -40 45 6 16 20 -14 57 -30 82 -36z m229
-656 c53 -21 75 -55 68 -106 -11 -83 -97 -148 -195 -148 -29 0 -52 5 -52 10 0
6 8 10 18 10 36 0 92 22 122 47 29 24 70 90 70 113 0 20 -40 50 -68 50 -40 0
-64 -21 -134 -113 -34 -45 -78 -97 -97 -116 l-35 -34 53 -48 c53 -49 76 -57
111 -39 12 7 21 7 25 0 8 -12 -53 -50 -81 -50 -25 0 -88 40 -128 81 -23 25
-33 29 -57 24 -47 -10 -135 13 -169 45 -36 34 -38 53 -5 85 41 42 113 32 186
-26 21 -17 43 -28 49 -24 6 4 33 40 60 81 60 87 111 141 154 160 41 17 58 17
105 -2z m2731 -199 c7 -8 10 -22 6 -30 -7 -20 -54 -20 -58 0 -3 14 -6 14 -27
-1 -30 -21 -13 -34 46 -34 80 0 93 -76 21 -120 -58 -35 -141 -19 -124 25 8 22
45 19 54 -5 6 -17 10 -18 32 -7 14 7 26 20 28 30 3 14 -4 17 -38 17 -55 0 -80
15 -80 46 0 38 18 64 53 79 42 19 72 18 87 0z m-2100 -65 c0 -6 -15 -24 -34
-40 -19 -17 -61 -70 -93 -118 -81 -119 -81 -118 -37 -88 59 40 124 32 124 -15
0 -9 -16 -36 -34 -60 -38 -47 -39 -57 -6 -39 34 18 38 1 6 -26 -20 -18 -38
-24 -60 -22 -43 4 -45 30 -7 83 61 86 27 86 -74 0 -41 -35 -54 -41 -73 -34
l-23 9 42 80 c56 104 133 206 187 247 43 32 82 43 82 23z m1915 -24 c24 -36
10 -71 -42 -109 -42 -29 -44 -32 -22 -35 16 -3 32 5 51 27 33 37 38 38 38 10
0 -12 -15 -36 -34 -55 -87 -87 -198 5 -141 117 33 63 121 90 150 45z m-2463
-36 c9 -11 22 -18 30 -15 7 3 22 -1 32 -8 18 -13 18 -16 -17 -62 -47 -61 -49
-78 -7 -55 13 7 19 6 24 -6 3 -8 10 -13 15 -10 15 10 44 -25 32 -37 -18 -18
-13 -25 20 -32 51 -12 57 9 16 55 -42 46 -43 48 -21 78 32 46 154 15 154 -39
0 -11 -7 -22 -15 -25 -22 -9 -47 15 -40 37 5 16 1 19 -26 19 l-33 0 37 -38
c60 -62 44 -122 -32 -122 -50 0 -105 37 -109 73 -3 26 -5 26 -25 12 -31 -21
-84 -20 -91 3 -5 14 -14 17 -40 14 -27 -3 -40 2 -60 22 -31 30 -33 60 -6 104
37 60 124 77 162 32z m1621 2 c21 -19 23 -68 2 -76 -28 -11 -47 5 -43 36 4 23
0 30 -17 34 -29 7 -72 -11 -85 -36 -19 -35 -4 -66 50 -105 62 -46 90 -80 90
-114 1 -24 2 -24 21 11 21 41 65 61 80 37 5 -8 9 -43 9 -78 0 -62 1 -64 19
-47 10 9 28 50 40 90 20 67 34 86 61 86 5 0 11 -33 13 -72 2 -52 5 -67 11 -50
5 12 15 22 22 22 9 0 14 12 14 36 0 69 71 141 129 133 34 -5 50 -34 30 -54
-17 -18 -49 -10 -49 11 0 21 -17 17 -34 -8 -38 -53 -5 -144 43 -119 11 6 25
20 31 31 6 11 15 20 20 20 21 0 8 -34 -24 -66 -39 -39 -94 -47 -123 -16 -17
17 -19 16 -38 -23 -17 -33 -25 -40 -50 -40 -27 0 -31 4 -35 35 l-6 35 -8 -32
c-12 -49 -43 -83 -77 -83 -32 0 -36 10 -42 95 -3 39 -5 45 -11 28 -5 -13 -16
-23 -26 -23 -12 0 -20 -10 -24 -33 -13 -69 -115 -133 -228 -143 -137 -12 -200
82 -120 178 48 57 122 73 180 38 43 -26 46 -78 6 -109 -26 -21 -54 -28 -54
-14 0 4 12 17 28 29 22 19 25 26 16 41 -16 26 -95 24 -132 -4 -32 -24 -41 -77
-18 -108 21 -29 136 -29 186 1 46 27 80 78 80 122 0 30 -10 44 -70 101 -64 62
-70 71 -70 108 0 33 6 48 31 72 50 50 129 61 172 23z m642 -52 c0 -31 -33 -40
-52 -15 -10 15 -15 16 -27 6 -36 -30 -24 -121 17 -129 21 -4 57 24 57 45 0 7
7 13 15 13 18 0 18 -2 1 -45 -15 -35 -59 -65 -96 -65 -87 0 -102 121 -24 190
29 25 43 30 72 28 32 -3 37 -6 37 -28z m-1545 -75 c0 -14 -26 -45 -39 -45 -30
0 -41 54 -14 69 21 11 53 -3 53 -24z m-70 -108 c0 -7 -14 -35 -31 -61 -30 -48
-32 -70 -5 -47 17 14 40 5 30 -11 -10 -16 -85 -47 -101 -41 -21 8 -15 51 12
91 30 44 33 62 6 38 -27 -25 -48 -10 -24 16 39 44 113 54 113 15z m519 -1 c25
-30 -18 -63 -47 -34 -8 8 -15 8 -27 -2 -13 -11 -12 -15 10 -38 66 -66 -10
-175 -111 -156 -20 4 -34 2 -34 -4 0 -5 21 -13 48 -17 49 -7 92 -28 92 -46 0
-5 -11 -21 -25 -34 -20 -21 -34 -25 -79 -25 -86 0 -134 31 -101 64 8 8 15 21
15 29 0 8 9 22 20 32 15 13 17 22 10 36 -18 32 -12 84 13 106 28 26 61 43 82
43 9 0 30 14 45 30 30 32 70 39 89 16z m-395 -21 c3 -8 1 -27 -5 -42 -9 -26
-9 -26 8 -11 39 34 85 51 109 39 31 -14 31 -45 -1 -96 -31 -51 -31 -59 0 -39
39 26 44 6 7 -27 -36 -32 -63 -37 -83 -13 -10 13 -8 24 14 70 32 64 32 64 11
64 -9 0 -44 -27 -79 -61 -50 -48 -68 -59 -85 -54 -20 6 -20 7 10 59 35 63 40
88 10 61 -14 -13 -24 -15 -31 -8 -7 7 1 20 26 42 38 33 79 41 89 16z"/>
<path d="M6328 5003 c6 -2 18 -2 25 0 6 3 1 5 -13 5 -14 0 -19 -2 -12 -5z"/>
<path d="M6288 4923 c6 -2 18 -2 25 0 6 3 1 5 -13 5 -14 0 -19 -2 -12 -5z"/>
<path d="M6050 4916 c0 -2 8 -10 18 -17 15 -13 16 -12 3 4 -13 16 -21 21 -21
13z"/>
<path d="M3463 5033 c9 -2 25 -2 35 0 9 3 1 5 -18 5 -19 0 -27 -2 -17 -5z"/>
<path d="M3588 4973 c7 -3 16 -2 19 1 4 3 -2 6 -13 5 -11 0 -14 -3 -6 -6z"/>
<path d="M3230 4305 c-7 -8 -10 -22 -6 -30 13 -34 144 -72 160 -46 9 14 -30
57 -68 75 -42 20 -70 20 -86 1z"/>
<path d="M6221 4191 c-13 -23 -15 -71 -3 -71 17 0 54 49 50 66 -5 26 -35 29
-47 5z"/>
<path d="M3794 4170 c-12 -5 -31 -21 -43 -36 -49 -63 11 -105 63 -44 43 51 31
98 -20 80z"/>
<path d="M4856 3858 c-28 -39 -19 -108 15 -108 28 0 51 42 47 87 -2 30 -7 39
-25 41 -13 2 -27 -5 -37 -20z"/>
<path d="M4780 3646 c0 -16 61 -30 90 -21 43 14 9 35 -57 35 -22 0 -33 -5 -33
-14z"/>
<path d="M2203 4928 l-112 -113 1430 -1425 c787 -784 1433 -1426 1437 -1428 4
-1 650 641 1437 1428 l1430 1430 -113 112 -112 113 -1320 -1320 -1320 -1320
-1318 1318 c-724 724 -1319 1317 -1322 1317 -3 0 -56 -51 -117 -112z"/>
<path d="M8115 4344 c-14 -15 -25 -39 -25 -54 0 -35 32 -76 65 -84 28 -7 98
20 89 35 -3 5 0 9 5 9 17 0 13 35 -6 52 -33 28 -42 29 -62 6 -28 -30 -26 -38
10 -38 17 0 28 -4 24 -10 -9 -14 -48 -13 -63 2 -19 19 -15 59 8 65 16 4 18 9
9 24 -13 26 -25 24 -54 -7z"/>
<path d="M7704 3895 c-3 -8 1 -21 9 -29 13 -13 17 -13 26 -2 9 11 8 18 -4 30
-20 20 -24 20 -31 1z"/>
<path d="M7830 3870 c0 -5 7 -10 16 -10 8 0 12 5 9 10 -3 6 -10 10 -16 10 -5
0 -9 -4 -9 -10z"/>
<path d="M7613 3825 c-25 -27 -6 -95 26 -95 6 0 11 -4 11 -10 0 -5 13 -10 28
-10 18 0 29 5 29 14 0 8 -7 11 -18 9 -20 -6 -69 38 -69 61 0 8 7 22 16 30 11
12 12 16 2 16 -7 -1 -19 -7 -25 -15z"/>
<path d="M7692 3805 c-11 -13 -9 -15 14 -15 22 0 25 2 14 15 -15 18 -12 18
-28 0z"/>
<path d="M7721 3744 c0 -11 3 -14 6 -6 3 7 2 16 -1 19 -3 4 -6 -2 -5 -13z"/>
<path d="M7525 3729 c9 -14 95 -93 106 -97 5 -2 9 2 9 9 0 20 -82 99 -103 99
-10 0 -15 -5 -12 -11z"/>
</g>
</svg>
